<svg height="60" viewBox="0 0 60 60" width="60" xmlns="http://www.w3.org/2000/svg">
    <path d="m42.946 2.012-6.716-.012c-7.545 0-12.421 5.41-12.421 13.782v6.354h-6.753c-.583 0-1.056.511-1.056 1.142v9.207c0 .631.473 1.142 1.056 1.142h6.753v23.231c0 .631.472 1.142 1.056 1.142h8.81c.583 0 1.056-.512 1.056-1.142v-23.231h7.895c.584 0 1.056-.511 1.056-1.142l.003-9.207c0-.303-.111-.593-.309-.807a1.018 1.018 0 0 0 -.747-.335h-7.899v-5.387c0-2.589.57-3.903 3.69-3.903l4.524-.002c.582 0 1.055-.511 1.055-1.142v-8.548c0-.63-.472-1.141-1.054-1.142z"
          fill="#948889"/>
</svg>
