<svg height="60" viewBox="0 0 60 60" width="60" xmlns="http://www.w3.org/2000/svg">
    <path d="m41.25 0c10.354 0 18.75 8.396 18.75 18.75v22.5c0 10.354-8.396 18.75-18.75 18.75h-22.5c-10.354 0-18.75-8.396-18.75-18.75v-22.5c0-10.354 8.396-18.75 18.75-18.75zm13.125 41.25v-22.5c0-7.238-5.888-13.125-13.125-13.125h-22.5c-7.238 0-13.125 5.887-13.125 13.125v22.5c0 7.237 5.887 13.125 13.125 13.125h22.5c7.237 0 13.125-5.888 13.125-13.125zm-24.375-26.25c8.284 0 15 6.716 15 15s-6.716 15-15 15-15-6.716-15-15 6.716-15 15-15zm0 24.375c5.167 0 9.375-4.208 9.375-9.375 0-5.171-4.208-9.375-9.375-9.375-5.168 0-9.375 4.204-9.375 9.375 0 5.167 4.207 9.375 9.375 9.375zm16.125-23.501a1.999 1.999 0 1 1 0-3.998 1.999 1.999 0 0 1 0 3.998z"
          fill="#948889"/>
</svg>
